<?xml version="1.0" standalone="no"?>
<!DOCTYPE svg PUBLIC "-//W3C//DTD SVG 20010904//EN"
 "http://www.w3.org/TR/2001/REC-SVG-20010904/DTD/svg10.dtd">
<svg version="1.0" xmlns="http://www.w3.org/2000/svg"
 width="180.000000pt" height="180.000000pt" viewBox="0 0 180.000000 180.000000"
 preserveAspectRatio="xMidYMid meet">
<metadata>
Created by potrace 1.11, written by Peter Selinger 2001-2013
</metadata>
<g transform="translate(0.000000,180.000000) scale(0.100000,-0.100000)"
fill="#000000" stroke="none">
<path d="M879 1773 c-17 -49 -20 -58 -20 -60 0 -2 -8 -17 -19 -35 -11 -18 -25
-45 -31 -60 -6 -16 -15 -28 -20 -28 -16 0 -10 -77 6 -90 11 -9 48 -13 112 -13
138 1 143 15 67 178 -15 33 -28 65 -29 70 -5 40 -19 65 -36 65 -12 0 -23 -11
-30 -27z"/>
<path d="M454 1675 c-4 -8 -3 -32 1 -53 4 -20 9 -77 11 -127 3 -78 6 -92 25
-107 29 -25 44 -23 95 12 24 17 44 28 44 25 0 -8 62 35 72 49 13 19 -23 65
-90 114 -38 27 -81 61 -97 76 -32 29 -53 33 -61 11z"/>
<path d="M1298 1657 c-30 -29 -96 -75 -141 -97 -26 -14 -50 -33 -53 -42 -3
-10 -9 -18 -13 -18 -4 0 -6 -12 -3 -27 3 -23 19 -37 88 -75 73 -41 87 -46 108
-37 23 11 42 61 30 80 -3 5 -2 9 3 9 4 0 9 24 10 53 1 28 7 73 14 99 6 26 8
52 4 58 -8 14 -31 13 -47 -3z"/>
<path d="M828 1405 c-2 -2 -17 -6 -34 -9 -91 -16 -173 -63 -255 -145 -78 -78
-122 -169 -135 -281 -3 -25 -7 -51 -9 -57 -3 -7 -1 -13 3 -13 4 0 7 -14 6 -32
0 -18 3 -48 8 -68 5 -19 10 -42 12 -51 8 -31 49 -104 85 -150 114 -147 328
-220 509 -175 12 3 31 8 42 10 84 19 225 135 280 231 49 86 64 163 60 310 -2
84 -79 231 -154 299 -49 43 -150 103 -176 104 -3 1 -18 6 -35 13 -27 11 -198
22 -207 14z m93 -228 c7 -18 16 -34 19 -37 6 -5 59 -82 127 -185 40 -60 74
-164 72 -219 -4 -104 -51 -178 -132 -211 -46 -18 -174 -24 -198 -9 -8 5 -16 9
-19 9 -17 2 -54 35 -71 63 -23 36 -27 100 -10 145 6 16 36 79 66 140 64 132
110 272 108 335 0 30 20 13 38 -31z"/>
<path d="M1059 884 c0 -5 -1 -34 -3 -64 -5 -97 -25 -158 -64 -196 -30 -29 -32
-34 -15 -34 44 0 84 14 107 36 21 22 23 32 21 92 -2 37 -10 86 -19 110 -8 23
-15 45 -15 48 0 3 -2 8 -5 12 -3 3 -6 1 -7 -4z"/>
<path d="M120 1358 c0 -8 25 -48 55 -89 30 -41 55 -79 55 -84 0 -19 59 -75 78
-75 33 0 53 25 119 152 29 57 -10 79 -164 92 -21 2 -62 7 -90 11 -44 6 -53 5
-53 -7z"/>
<path d="M1608 1365 c-4 -5 -35 -9 -140 -20 -64 -6 -104 -21 -112 -41 -6 -16
51 -128 88 -171 37 -44 77 -23 126 64 18 32 48 76 66 97 43 50 45 76 6 76 -16
0 -31 -2 -34 -5z"/>
<path d="M174 1001 c-49 -20 -108 -43 -131 -50 -55 -18 -56 -41 -5 -64 21 -9
43 -17 48 -17 5 0 41 -18 79 -41 56 -33 77 -40 104 -35 18 3 36 8 39 11 9 8 9
180 1 203 -12 33 -43 31 -135 -7z"/>
<path d="M1513 1029 c-25 -9 -25 -8 -27 -124 -3 -123 33 -145 136 -84 53 32
92 50 116 55 24 5 63 35 60 46 -5 14 -11 17 -118 58 -47 19 -98 39 -115 46
-19 7 -38 9 -52 3z"/>
<path d="M1462 692 c-11 -9 -32 -39 -47 -67 -15 -27 -33 -57 -41 -66 -7 -8
-12 -26 -9 -39 8 -43 28 -52 112 -55 43 -1 103 -5 134 -9 42 -6 58 -5 67 7 10
11 7 20 -14 43 -14 16 -50 61 -81 101 -30 39 -65 79 -78 87 -21 14 -25 14 -43
-2z"/>
<path d="M269 673 c-14 -16 -41 -48 -59 -73 -18 -25 -49 -62 -68 -82 -51 -54
-40 -73 36 -63 31 4 91 8 132 9 123 4 154 43 94 121 -13 18 -21 35 -17 38 3 4
1 7 -5 7 -7 0 -12 6 -12 13 0 20 -38 57 -59 57 -9 0 -29 -12 -42 -27z"/>
<path d="M475 425 c-22 -21 -25 -33 -26 -107 -2 -85 -3 -100 -12 -155 -8 -48
21 -49 74 -2 51 45 56 49 89 70 79 52 104 101 66 130 -25 18 -152 89 -161 89
-3 0 -17 -11 -30 -25z"/>
<path d="M1245 433 c-16 -9 -32 -19 -35 -23 -8 -11 -70 -41 -70 -34 0 4 -9 -5
-20 -19 -28 -35 -18 -69 31 -101 21 -14 43 -26 49 -26 5 0 10 -5 10 -12 0 -6
3 -9 6 -5 3 3 13 -1 22 -8 59 -49 96 -75 107 -75 20 0 25 25 13 67 -6 21 -12
52 -13 68 -8 96 -19 149 -36 166 -23 23 -26 23 -64 2z"/>
<path d="M793 298 c-21 -23 -12 -79 21 -129 14 -21 36 -64 49 -95 30 -76 62
-97 71 -47 2 10 11 35 19 55 9 20 13 39 9 42 -3 3 0 6 6 6 7 0 12 4 12 9 0 5
10 31 22 58 21 48 24 90 7 108 -5 5 -52 9 -105 10 -78 0 -98 -3 -111 -17z"/>
</g>
</svg>
